<svg xmlns="http://www.w3.org/2000/svg" version="1.1" xlink="http://www.w3.org/1999/xlink" xmlns:svgjs="http://svgjs.com/svgjs" width="100%" height="100%" viewBox="23.763996124267578 21.259004592895508 94.20199584960938 99.21300506591797">
<g fill="url(#SvgjsLinearGradient1001)"><path d="M103.323 80.648l14.643-19.327-21.14-8.133 6.179-20.669-21.359 7.57-10.066-18.83-10.133 18.316-20.632-7.938 5.817 20.862-22.868 8.105 15.085 19.817-9.595 17.343h22.797l16.958 22.276-6.212-22.276h17.145l-6.787 22.708 17.203-22.708h22.114l-9.149-17.116zm9.185-17.772l-10.954 14.46-7.661-14.333 1.954-6.537 16.661 6.41zM99.286 80.329L88.662 94.352h-4.141l7.984-26.708 6.781 12.685zm-7.677-21.597l-2.621-4.905 3.666 1.411-1.045 3.494zm6.203-20.754L93.634 51.96l-7.105-2.733-3.257-6.095 14.54-5.154zm-16.153 9.374l-4.937-1.899 3.297-1.168 1.64 3.067zm-10.13-18.953l6.864 12.843-6.567 2.327-7.165-2.757 6.868-12.413zm-4.647 16.923l-5.867 2.08 1.979-3.576 3.888 1.496zm-20.959-8.065l13.857 5.332-3.613 6.531-6.312 2.237-3.932-14.1zm4.85 17.393l2.903-1.029-2.121 3.833-.782-2.804zm-21.464 7.607l18.241-6.465 1.651 5.918-8.547 15.448-11.345-14.901zm21.198 4.138l7.797 27.957h-4.562L42.911 80.125l7.596-13.73zM35.04 94.352l6.067-10.966 8.348 10.966H35.04zm25.901 9.458l-4.603-6.047h2.917l1.686 6.047zm.904-9.458l-8.983-32.213 5.664-10.237 13.253-4.697 12.34 4.748 6.104 11.419-9.261 30.979H61.845zm19.978 9.027l1.679-5.615h2.576l-4.255 5.615zm19.232-19.738l5.725 10.711H92.941l8.114-10.711z"></path></g><defs><linearGradient gradientUnits="userSpaceOnUse" id="SvgjsLinearGradient1001" x1="22.511243820190426" y1="119.21925735473634" x2="119.2187442779541" y2="22.51175689697265"><stop stop-color="#eb74c4" offset="0.05"></stop><stop stop-color="#c41c8c" offset="0.95"></stop></linearGradient></defs></svg>